<?xml version="1.0" standalone="no"?><!DOCTYPE svg PUBLIC "-//W3C//DTD SVG 1.1//EN" "http://www.w3.org/Graphics/SVG/1.1/DTD/svg11.dtd"><svg t="1599638543500" class="icon" viewBox="0 0 1024 1024" version="1.1" xmlns="http://www.w3.org/2000/svg" p-id="2476" xmlns:xlink="http://www.w3.org/1999/xlink" width="180" height="180"><defs><style type="text/css"></style></defs><path d="M245.363244 564.167127c18.84316 68.140936 49.630351 129.900535 89.437985 181.836395 38.671765-22.331611 82.948177-41.114396 131.336234-55.231929-21.146623-57.065693-39.787168-121.408117-54.558593-190.562127C350.407672 516.544503 294.402123 538.207895 245.363244 564.167127z" p-id="2477"></path><path d="M419.887093 443.990047c1.669012 9.465582 3.414773 18.856463 5.229095 28.17162 52.521191-12.817933 108.584044-21.762653 167.109995-26.215058-0.980327-5.950526-1.99647-11.919471-3.051499-17.906835-11.009751-62.437028-25.243941-121.712039-41.793872-176.184675-51.538817 4.984524-101.016695 13.929244-147.643642 26.318412C403.13864 330.914712 409.778874 386.66341 419.887093 443.990047z" p-id="2478"></path><path d="M611.981109 664.259776c-0.585331-60.465117-5.821589-126.361943-16.107863-195.10356-58.148351 4.555759-113.840768 13.551644-166.023244 26.370601 14.513552 68.975954 32.882921 133.249817 53.768601 190.397375 38.743396-10.199293 79.905888-17.446347 122.766045-21.195741C608.251158 664.565744 610.116645 664.409179 611.981109 664.259776z" p-id="2479"></path><path d="M474.665697 713.051015c-45.738717 13.284561-87.823208 30.730908-124.986619 51.40681 39.104623 46.13883 85.73771 83.374896 137.53747 108.917642 16.424064-9.912767 35.165918-18.257829 55.627948-24.570605C518.773264 812.07738 495.641427 766.095116 474.665697 713.051015z" p-id="2480"></path><path d="M227.390917 346.57846c-2.02103 19.906375-3.066849 40.167838-3.066849 60.717873 0 46.291302 5.28026 91.124394 15.158235 133.711328 49.334615-26.087145 105.708554-47.827285 167.293167-64.175625-2.145873-10.844999-4.201695-21.790282-6.15007-32.841989-9.772574-55.420217-16.306384-109.370966-19.805068-160.552649C324.755432 299.732525 273.125541 321.086879 227.390917 346.57846z" p-id="2481"></path><path d="M537.480324 908.603807c-15.467273-4.190439-30.608112-9.387811-45.385677-15.501042-4.405333 2.666736-8.648984 5.441942-12.70844 8.324596C498.353189 905.207453 517.745864 907.631666 537.480324 908.603807z" p-id="2482"></path><path d="M715.109907 230.026954c-21.999037-37.667901-47.651276-71.845305-76.081793-102.053304-21.196765-1.970888-42.704614-2.991124-64.47443-2.991124-17.440208 0-34.710546 0.659009-51.789527 1.929955 13.671371 32.001855 26.559912 66.962088 38.363749 104.321974 27.932166-2.248204 56.419987-3.414773 85.351923-3.414773C669.662833 227.819682 692.556239 228.574882 715.109907 230.026954z" p-id="2483"></path><path d="M381.427152 108.436688c-35.887348 11.592013-69.681012 27.836999-100.67798 48.018643-2.969635 6.112208-5.836939 12.30321-8.593725 18.573008 34.044374-16.32378 69.950142-29.872355 107.349937-40.328497C380.028293 125.768425 380.675022 117.018134 381.427152 108.436688z" p-id="2484"></path><path d="M379.575991 262.892479c-2.043542-38.386262-2.344395-75.067696-0.98749-109.467157-41.085744 12.297071-80.287581 28.353768-117.113301 47.724954-14.20656 37.458123-24.651446 77.336366-30.788214 118.963439C275.588639 297.147654 325.617056 277.824563 379.575991 262.892479z" p-id="2485"></path><path d="M541.494755 233.001705c-11.981892-37.416168-25.051559-72.371284-38.898939-104.300484-35.846416 3.727904-70.76674 10.215666-104.508215 19.208481-1.550309 34.491559-1.417279 71.338768 0.491187 109.953228C443.86725 246.38655 491.731374 237.960647 541.494755 233.001705z" p-id="2486"></path><path d="M790.669814 448.333982c-5.579065-40.410362-15.559371-81.222883-30.277584-121.661897-9.657964-26.535353-20.98187-51.883671-33.753755-75.940576-27.27725-2.284019-55.102992-3.470031-83.367733-3.470031-25.832342 0-51.297316 0.992607-76.314083 2.905166 15.919575 53.121871 29.634948 110.714568 40.315194 171.284061 1.370207 7.767917 2.668783 15.503089 3.9121 23.210631 21.961174-1.293459 44.245713-1.957585 66.799382-1.957585C716.421786 442.703751 754.070244 444.641893 790.669814 448.333982z" p-id="2487"></path><path d="M587.0503 883.119389c2.388397-7.937786 4.611018-16.248056 6.668886-24.901133-7.644097 1.083681-15.139815 2.435469-22.464641 4.043083C576.48671 869.662913 581.755714 876.624465 587.0503 883.119389z" p-id="2488"></path><path d="M588.268034 920.883481c1.106194-0.633427 2.204202-1.277086 3.302209-1.921769-0.760317-0.086981-1.52268-0.161682-2.28095-0.25378C588.94751 919.432433 588.611865 920.169213 588.268034 920.883481z" p-id="2489"></path><path d="M143.348825 632.976282c-10.361999 8.994861-20.063965 18.262946-29.068036 27.78174 24.503067 65.643046 64.785515 123.593899 116.242468 169.228239 7.913227-9.206686 16.555048-18.176988 25.904996-26.865881C208.182436 756.658186 169.307034 698.642864 143.348825 632.976282z" p-id="2490"></path><path d="M685.621293 840.426031c37.114293-42.719964 65.638953-93.878111 84.388992-150.287865-44.352137-5.765307-91.416036-7.330966-139.997498-4.103458-0.839111 56.08332-5.869684 106.822934-14.734586 149.97064C639.923508 834.642305 663.645792 836.267315 685.621293 840.426031z" p-id="2491"></path><path d="M464.013079 913.604704c-6.505158 5.755074-12.354376 11.81714-17.483186 18.128893 13.338796 2.065032 26.883277 3.505847 40.60172 4.298909 27.882024-0.295735 55.864332-3.466961 83.60207-9.737782 0.951675-2.00261 1.882883-4.060479 2.803859-6.14393-10.29753 0.805342-20.692275 1.225921-31.175023 1.225921C515.613294 921.376715 489.429958 918.705885 464.013079 913.604704z" p-id="2492"></path><path d="M776.351714 669.597341c17.605983-61.913095 23.747867-129.432885 16.990976-198.586894-35.508725-3.467985-71.994708-5.28333-109.218494-5.28333-23.435759 0-46.577828 0.721431-69.37095 2.117221 10.06831 68.866461 15.057951 134.802172 15.371082 195.184401C681.08293 660.174738 730.291678 662.59588 776.351714 669.597341z" p-id="2493"></path><path d="M270.833335 790.418081c14.234189-11.933797 29.810956-23.275099 46.601364-33.914414-40.136116-52.005444-71.179133-113.961518-90.197278-182.361351-25.14775 14.376429-48.263214 29.92966-69.068052 46.508243C184.05083 686.138062 222.777853 744.016261 270.833335 790.418081z" p-id="2494"></path><path d="M780.791839 329.048201c14.70184 40.392966 24.678052 81.159438 30.261211 121.524774 28.735461 3.450589 56.762795 8.009418 83.96432 13.571087-2.63399-50.40704-12.789281-101.728916-31.179117-152.254659-5.436826-14.938224-11.478426-29.459962-18.064424-43.558052-31.924083-6.860245-64.99734-12.143575-98.991572-15.702634C759.65852 276.827863 771.07043 302.33684 780.791839 329.048201z" p-id="2495"></path><path d="M563.809993 109.633956c20.156062 0 40.086997 0.874927 59.754942 2.568499-4.481058-4.38589-9.024537-8.674567-13.624299-12.870122-31.441083-7.427156-64.230883-11.365862-97.94166-11.365862-2.316765 0-4.627391 0.025583-6.934946 0.062422 3.66139 7.54279 7.2798 15.293311 10.850116 23.246447C531.723204 110.188588 547.694967 109.633956 563.809993 109.633956z" p-id="2496"></path><path d="M122.059963 428.78474c0 59.97086 9.962909 117.372198 28.152177 170.303734 21.337981-17.175171 45.13906-33.266661 71.111594-48.100508-9.995655-42.820248-15.356756-87.909166-15.356756-134.482901 0-20.028149 0.9967-39.781028 2.917446-59.20031-32.41834 19.566638-61.535495 41.301661-86.780459 64.835657C122.07736 424.352801 122.059963 426.566212 122.059963 428.78474z" p-id="2497"></path><path d="M135.419226 611.513458c-18.219967-52.972469-28.196179-110.424972-28.196179-170.449044 0-1.471514 0.01842-2.937912 0.030699-4.406356-5.41636 5.552459-10.617825 11.19804-15.608489 16.927531-2.661619 19.211551-4.041036 38.833447-4.041036 58.776661 0 44.147476 6.743588 86.720084 19.252483 126.745682C115.707278 629.658723 125.234259 620.451014 135.419226 611.513458z" p-id="2498"></path><path d="M246.393713 843.383386c52.400441 42.098817 115.00836 72.006987 183.522804 85.433788 3.911076-6.817266 8.628518-13.424754 14.08888-19.763113C380.420219 892.837728 322.171584 861.233939 272.643564 817.993113 263.247566 826.200028 254.486018 834.676074 246.393713 843.383386z" p-id="2499"></path><path d="M111.902626 370.490056c-4.679579 13.195533-8.725732 26.689872-12.099572 40.448224 2.877537-2.743484 5.804193-5.465478 8.788154-8.16189C109.367897 391.906831 110.481254 381.142673 111.902626 370.490056z" p-id="2500"></path><path d="M484.137419 88.871073c-28.492938 1.847068-56.220443 6.504134-82.906222 13.700023-0.833995 8.80248-1.554402 17.788132-2.14178 26.969235 31.266098-7.730055 63.508429-13.30605 96.519264-16.557094C491.835751 104.711853 488.007563 96.682993 484.137419 88.871073z" p-id="2501"></path><path d="M172.186617 258.083963c-14.798031 19.74367-27.910677 40.821731-39.135322 63.018266-4.641717 22.37152-7.870248 45.338604-9.573029 68.780503 26.225291-21.795399 55.987129-41.892109 88.766696-59.972906 6.068206-41.451064 16.412808-81.169671 30.484292-118.499881C218.000036 225.490637 194.432271 241.096057 172.186617 258.083963z" p-id="2502"></path><path d="M259.870656 170.95558c-12.551874 9.28548-24.574698 19.244296-36.012192 29.826306 9.807367-5.776563 19.797905-11.319813 29.973662-16.60212C255.788687 179.730431 257.806647 175.325098 259.870656 170.95558z" p-id="2503"></path><path d="M744.434793 859.570044c0.938372 0.460488 1.873674 0.924045 2.797719 1.396813 11.235902-6.028297 22.199605-12.57541 32.869618-19.609617 42.295292-34.508955 77.81118-77.008908 104.244202-125.201513-6.237051-2.108011-12.573363-4.121877-19.007913-6.03546C836.550771 768.743432 795.631826 820.063261 744.434793 859.570044z" p-id="2504"></path><path d="M936.038646 494.949672c-7.348362-1.785669-14.764262-3.496637-22.2477-5.128811 1.038656 71.561849-13.063527 140.811026-40.293705 202.765053 6.619768 2.191922 13.125949 4.493338 19.516496 6.897084 27.774577-56.447617 43.38102-119.961162 43.38102-187.121771C936.394756 506.529405 936.27196 500.725212 936.038646 494.949672z" p-id="2505"></path><path d="M751.119029 863.020632c2.000564-1.367137 3.991917-2.747577 5.967922-4.148483-2.111081 1.324158-4.226255 2.6432-6.359848 3.929496C750.860133 862.873276 750.987023 862.949001 751.119029 863.020632z" p-id="2506"></path><path d="M703.341886 887.413182c-15.780405 9.298783-32.330336 17.579377-49.610908 24.740474 0.346901-0.002047 0.690732-0.013303 1.037632-0.016373 28.535917-10.19213 55.661717-23.348778 81.004919-39.105646-0.571005-0.230244-1.130753-0.469698-1.705851-0.695848C724.034161 877.777731 713.791889 882.81956 703.341886 887.413182z" p-id="2507"></path><path d="M670.444639 856.958566c-19.043728-2.148943-39.117926-2.463098-59.752896-0.679475-3.580548 14.417361-7.632841 27.843138-12.149714 40.155559 3.024893 3.302209 6.053879 6.467295 9.085936 9.455349 1.924839-0.245593 3.842515-0.5137 5.760191-0.785899C633.988332 890.975311 653.039223 874.832655 670.444639 856.958566z" p-id="2508"></path><path d="M710.642153 864.597547c-6.604418-1.806135-13.410428-3.369747-20.393469-4.678556-13.927197 14.240329-28.886911 27.390837-44.861744 39.275515 3.3984-0.772596 6.785543-1.577938 10.155291-2.436492C674.936953 887.443881 693.321672 876.667443 710.642153 864.597547z" p-id="2509"></path><path d="M471.496517 883.860263c-52.477188-25.391297-99.723236-62.747089-139.315976-109.203144-15.981996 9.750061-30.9325 20.119223-44.728714 31.027667 48.932456 42.726104 106.381889 74.085322 169.078837 90.476641C461.175451 891.893216 466.171232 887.784642 471.496517 883.860263z" p-id="2510"></path><path d="M492.046552 708.253756c20.62576 52.900837 43.395346 98.959849 67.13605 136.039349 12.511965-3.063779 25.560142-5.382591 39.026852-6.866385 8.485255-43.35646 13.187347-94.084818 13.765515-149.991106C570.141188 691.214684 529.940604 698.320523 492.046552 708.253756z" p-id="2511"></path><path d="M667.725714 117.449969c-10.677177-4.213975-21.569248-8.001231-32.650631-11.353582 2.859118 2.672876 5.701862 5.371334 8.512884 8.118911C651.685389 115.1506 659.729599 116.235304 667.725714 117.449969z" p-id="2512"></path><path d="M509.593184 883.544061c22.560832 9.395998 45.988404 16.625656 70.104661 21.463848 0.718361-1.916653 1.424442-3.860934 2.119267-5.831822-9.026584-9.587356-18.013259-20.573571-26.901697-32.834826C538.716478 870.88781 523.515265 876.695073 509.593184 883.544061z" p-id="2513"></path><path d="M913.019373 467.98453c7.257288 1.626034 14.44806 3.326768 21.575388 5.097088-6.66684-72.641437-31.637558-139.985218-70.26225-197.376323 6.423293 13.81361 12.32777 28.02938 17.648962 42.647309C900.052037 368.002398 910.174582 418.421718 913.019373 467.98453z" p-id="2514"></path><path d="M846.595544 704.890148c-18.140149-4.720511-36.968983-8.66945-56.368822-11.808954-19.029402 57.017598-48.045249 108.661815-85.837994 151.616116 8.010441 2.148943 15.722076 4.659113 23.099091 7.492648C777.773086 813.087383 818.065767 762.54629 846.595544 704.890148z" p-id="2515"></path><path d="M734.976374 231.504608c33.913391 2.833535 66.99074 7.272637 99.028411 13.18837-4.220115-7.968485-8.625448-15.781428-13.199627-23.440875-30.777981-32.637328-66.667376-60.400648-106.396215-81.998549-18.104333-3.756557-36.504402-6.808056-55.17053-9.102309C687.516456 160.166863 713.045899 194.110953 734.976374 231.504608z" p-id="2516"></path><path d="M895.691729 486.063281c-26.580379-5.28026-53.936423-9.602705-81.956593-12.875239 6.824429 69.598124 0.578168 137.546679-17.265222 199.794395 20.239973 3.739161 39.806611 8.375761 58.56893 13.855566C882.132922 625.482611 896.341528 556.940538 895.691729 486.063281z" p-id="2517"></path></svg>