<?xml version="1.0" standalone="no"?><!DOCTYPE svg PUBLIC "-//W3C//DTD SVG 1.1//EN" "http://www.w3.org/Graphics/SVG/1.1/DTD/svg11.dtd"><svg t="1600076767391" class="icon" viewBox="0 0 1024 1024" version="1.1" xmlns="http://www.w3.org/2000/svg" p-id="3512" xmlns:xlink="http://www.w3.org/1999/xlink" width="180" height="180"><defs><style type="text/css"></style></defs><path d="M864 545.501867l-160-64.1024v-128.256l160-64.136534c17.698133 0 32 14.370133 32 32.068267v192.392533a32 32 0 0 1-32 32.034134zM560.008533 321.058133c-79.5136 0-144.008533-64.6144-144.008533-144.2816s64.477867-144.2816 144.008533-144.2816 144.008533 64.6144 144.008534 144.2816c0 79.7184-64.477867 144.2816-144.008534 144.2816z m-288 0c-79.5136 0-144.008533-64.6144-144.008533-144.2816s64.477867-144.2816 144.008533-144.2816 144.008533 64.6144 144.008534 144.2816c0 79.7184-64.477867 144.2816-144.008534 144.2816z m399.991467 0v288.580267H493.380267c-1.655467 26.624-13.312 49.5616-30.6176 62.5664h18.056533l127.6416 287.863467h-31.812267l-42.564266-96h-85.128534V1024h-31.8976v-159.931733h-86.459733l-43.229867 96h-31.8464l129.655467-287.863467h12.066133c-17.3056-12.987733-28.962133-35.9424-30.6176-62.5664H160V321.058133h512z m-254.976 361.0624c-1.314133-0.324267-2.525867-0.989867-3.805867-1.4336l-68.215466 151.432534h72.0384v-149.981867z m31.8976-2.321066v152.32h70.946133l-68.027733-153.4464c-0.9216 0.443733-1.8944 0.733867-2.9184 1.1264z" p-id="3513"></path></svg>