<?xml version="1.0" standalone="no"?><!DOCTYPE svg PUBLIC "-//W3C//DTD SVG 1.1//EN" "http://www.w3.org/Graphics/SVG/1.1/DTD/svg11.dtd"><svg t="1574149219648" class="icon" viewBox="0 0 1049 1024" version="1.1" xmlns="http://www.w3.org/2000/svg" p-id="4950" xmlns:xlink="http://www.w3.org/1999/xlink" width="131.125" height="128"><defs><style type="text/css"></style></defs><path d="M524.133 61.228a454.983 455.322 0 0 0-454.995 455.34 454.983 455.322 0 0 0 454.995 455.318 454.983 455.322 0 0 0 454.975-455.319 454.983 455.322 0 0 0-454.975-455.34zM484.8 259.235c125.07 0 226.456 104.295 226.456 232.95 0 16.082 0.677 67.228-30.978 112.682-27.597 60.47 15.213 74.585 23.33 80.267 22.32 4.464 64.62-6.204 64.707-49.067 0.083-41.004-57.374-47.31-46.477-53.174 78.887-42.455 95.237 31.956 89.15 50.625 24.756 0.406 88.216 37.512 38.1 94.188-9.737 11.01-6.064-26.007-22.298-37.777-16.64-12.58-28.138-18.187-54.671-8.235-47.499 48.437-122.87 91.73-205.251 94.512-211.161 2.87-308.524-155.365-308.524-284.02 0-128.656 101.386-232.951 226.456-232.951z" p-id="4951" fill="#d4237a"></path></svg>