<?xml version="1.0" standalone="no"?><!DOCTYPE svg PUBLIC "-//W3C//DTD SVG 1.1//EN" "http://www.w3.org/Graphics/SVG/1.1/DTD/svg11.dtd"><svg t="1600076523990" class="icon" viewBox="0 0 1170 1024" version="1.1" xmlns="http://www.w3.org/2000/svg" p-id="2712" xmlns:xlink="http://www.w3.org/1999/xlink" width="205.6640625" height="180"><defs><style type="text/css"></style></defs><path d="M1127.342 938.281h-77.082V370.442c0-47.319-38.4-85.647-85.719-85.647h-295.04V85.57C669.501 38.323 631.178 0 583.788 0H196.74c-47.319 0-85.719 38.323-85.719 85.647v852.71H42.86A42.936 42.936 0 0 0 0 981.14c0 23.624 19.308 42.86 42.86 42.86h1084.482a42.865 42.865 0 0 0 0-85.647v-0.072z m-345.794-460.18c0-5.996 4.75-10.676 10.752-10.676h92.15a10.598 10.598 0 0 1 10.68 10.675v38.544a10.598 10.598 0 0 1-10.752 10.752h-92.15a10.598 10.598 0 0 1-10.68-10.532V478.1z m0 225.044c0-5.996 4.75-10.675 10.752-10.675h92.15a10.598 10.598 0 0 1 10.68 10.675v38.543a10.598 10.598 0 0 1-10.455 10.752h-92.447a10.604 10.604 0 0 1-10.68-10.532v-38.763z m-354.35-445.41c0-5.923 4.75-10.603 10.751-10.603h92.155a10.598 10.598 0 0 1 10.676 10.675v38.544a10.598 10.598 0 0 1-10.532 10.675h-92.375a10.598 10.598 0 0 1-10.676-10.532v-38.758z m0 220.365c0-5.995 4.75-10.675 10.751-10.675h92.155A10.598 10.598 0 0 1 540.78 478.1v38.544a10.598 10.598 0 0 1-10.752 10.752h-92.155a10.604 10.604 0 0 1-10.68-10.532V478.1z m0 225.045c0-5.996 4.75-10.675 10.751-10.675h92.155a10.598 10.598 0 0 1 10.676 10.675v38.543a10.598 10.598 0 0 1-10.456 10.752h-92.451a10.609 10.609 0 0 1-10.68-10.532v-38.763z m-187.454-445.41c0-5.923 4.68-10.603 10.675-10.603h92.16a10.547 10.547 0 0 1 10.675 10.675v38.544a10.598 10.598 0 0 1-10.531 10.675h-92.299a10.598 10.598 0 0 1-10.675-10.532v-38.758z m0 220.365a10.547 10.547 0 0 1 10.675-10.675h92.16a10.547 10.547 0 0 1 10.675 10.675v38.544a10.598 10.598 0 0 1-10.455 10.752h-92.375a10.598 10.598 0 0 1-10.675-10.532V478.1z m0 225.045a10.547 10.547 0 0 1 10.675-10.675h92.16a10.547 10.547 0 0 1 10.675 10.675v38.543A10.598 10.598 0 0 1 342.8 752.44h-92.375a10.598 10.598 0 0 1-10.675-10.532v-38.763z" p-id="2713"></path></svg>