<?xml version="1.0" standalone="no"?><!DOCTYPE svg PUBLIC "-//W3C//DTD SVG 1.1//EN" "http://www.w3.org/Graphics/SVG/1.1/DTD/svg11.dtd"><svg t="1574143502737" class="icon" viewBox="0 0 1024 1024" version="1.1" xmlns="http://www.w3.org/2000/svg" p-id="4265" xmlns:xlink="http://www.w3.org/1999/xlink" width="128" height="128"><defs><style type="text/css"></style></defs><path d="M120.32 692.48A85.333333 85.333333 0 0 1 199.168 640H256a42.666667 42.666667 0 0 1 0 85.333333H199.125333L128 896h768l-71.125333-170.666667H768a42.666667 42.666667 0 1 1 0-85.333333h56.874667a85.333333 85.333333 0 0 1 78.805333 52.48l71.082667 170.666667A85.333333 85.333333 0 0 1 896 981.333333H128a85.333333 85.333333 0 0 1-78.762667-118.186666l71.125334-170.666667z" fill="#75C82B" p-id="4266"></path><path d="M512 128C395.904 128 298.666667 226.816 298.666667 352.554667c0 48.213333 14.378667 92.586667 38.698666 128.981333 22.912 34.304 75.221333 110.336 122.026667 178.133333L512 735.744c14.890667-21.461333 33.28-48.042667 52.608-76.074667a19493.333333 19493.333333 0 0 0 122.026667-178.133333c24.32-36.352 38.698667-80.768 38.698666-128.981333C725.333333 226.816 628.096 128 512 128z m0 682.666667l-35.072 24.32v-0.042667l-26.325333-37.973333-61.44-88.789334a19507.029333 19507.029333 0 0 1-122.752-179.2A316.8 316.8 0 0 1 213.333333 352.554667C213.333333 183.168 345.344 42.666667 512 42.666667s298.666667 140.501333 298.666667 309.888a316.8 316.8 0 0 1-53.077334 176.426666 19488 19488 0 0 1-122.752 179.2l-61.44 88.789334-26.325333 37.973333v0.042667L512 810.666667z m0 0l35.072 24.32a42.666667 42.666667 0 0 1-70.144 0L512 810.666667z" fill="#75C82B" p-id="4267"></path><path d="M512 298.666667a42.666667 42.666667 0 1 0 0 85.333333 42.666667 42.666667 0 0 0 0-85.333333zM384 341.333333a128 128 0 1 1 256 0 128 128 0 0 1-256 0z" fill="#75C82B" p-id="4268"></path></svg>